<svg width="31" height="20" viewBox="0 0 31 20" fill="none" xmlns="http://www.w3.org/2000/svg">
<path d="M30.4755 1.46147C30.6087 1.53901 30.563 1.71588 30.4358 1.76547C29.0409 2.31786 27.5845 2.89804 26.5254 4.00282C25.7922 4.76784 25.2657 5.67592 24.3834 6.27204C24.3895 6.27399 24.3953 6.27595 24.4013 6.27805C24.598 6.74299 24.7729 7.21002 24.9279 7.66699C25.6095 9.68781 26.2175 12.2709 25.4544 14.3454C24.8107 16.092 23.3143 17.3796 21.6433 18.1148C19.4893 19.0646 17.0413 19.1818 14.7184 19.1519C12.4154 19.1241 10.0568 18.8141 8.00019 17.7132C6.23377 16.7694 4.77721 15.2454 4.20694 13.2961C3.59099 11.1878 4.38772 9.24857 5.29579 7.35879C5.50046 6.93548 5.71504 6.49834 5.94165 6.06121C6.03512 6.04333 4.06389 5.20678 3.28895 4.31057C2.32121 3.19588 1.65567 1.70957 0.109701 1.30023C-0.0135197 1.26837 -0.0432734 1.08369 0.0739366 1.02208C2.92334 -0.468139 6.61531 -0.4761 8.92615 1.98576L8.92209 1.9539C8.99963 1.88839 9.07717 1.82076 9.15666 1.75915C10.7005 0.543173 12.8267 0.000552517 15.1276 0.0125741C15.8112 0.00460979 16.4788 0.0304564 17.1245 0.105892C17.1444 0.0998808 17.1683 0.103939 17.1861 0.111904C18.6326 0.288771 19.9681 0.719893 21.1164 1.60814C21.2237 1.69153 21.3291 1.78094 21.4344 1.8705C23.6579 -0.893102 27.7692 -0.142053 30.4755 1.46147ZM27.0319 3.12074C27.9262 2.43912 28.9694 1.99613 30.0065 1.57883C27.183 0.0229433 23.9322 -0.422153 21.5437 2.10943C21.5437 2.11139 21.3887 2.25249 21.2496 2.11139C20.9197 1.81731 20.5621 1.55103 20.1746 1.32653C20.0533 1.25695 19.938 1.19534 19.8229 1.13584C19.821 1.14771 19.819 1.15973 19.8111 1.1716C18.5731 3.33743 17.4365 5.54699 16.4211 7.82613C16.3694 7.94138 16.2244 7.86384 16.2124 7.76857C16.0495 6.48302 16.3416 5.14367 16.5125 3.86803C16.6695 2.70164 16.8245 1.53135 17.033 0.372921C16.6993 0.339111 16.3296 0.311311 15.9164 0.285464C15.66 3.39123 15.3381 6.49294 14.9964 9.59074C14.9865 9.6821 14.8394 9.72192 14.8236 9.61463C14.3587 6.53471 13.9692 3.41106 13.8619 0.295379C13.5103 0.333097 13.1585 0.3887 12.8088 0.464285C13.2479 2.91623 13.4547 5.42993 13.6514 7.90968C13.6613 8.03094 13.4943 8.03094 13.4566 7.93552C12.5624 5.67427 11.5371 3.48064 10.3946 1.33464C9.876 1.61084 9.20039 1.99237 8.92615 2.30824C6.62718 0.0708798 3.34259 -0.139801 0.536916 1.13989C1.3655 1.50159 1.95771 2.11559 2.52002 2.85266C3.57716 4.23965 4.55271 5.5252 6.35504 5.86301C6.03918 6.38354 5.34568 7.864 4.95619 8.79191C4.07997 10.8804 3.97853 12.9527 5.25222 14.922C6.36691 16.6427 8.22875 17.7436 10.1662 18.304C12.2167 18.8981 14.3966 18.9518 16.5167 18.8602C18.6349 18.7708 20.8942 18.4608 22.6884 17.2428C24.4828 16.0266 25.5617 14.2264 25.4723 12.0268C25.3967 10.1113 24.8921 8.18587 24.1251 6.42336C23.998 6.15318 24.1251 6.04588 24.2841 5.95242C25.5338 5.22496 25.8894 3.989 27.0319 3.12074ZM19.6005 1.05018C19.6065 1.04222 19.6124 1.03831 19.6165 1.03035C18.8553 0.662791 18.164 0.495838 17.1982 0.388545C17.0452 1.61655 16.8544 2.83658 16.6994 4.06263C16.5643 5.1336 16.3437 6.24439 16.3993 7.33129C17.3651 5.18725 18.4241 3.08693 19.6005 1.05018ZM15.6741 0.269235C15.5886 0.263224 15.5052 0.259315 15.4158 0.253304C14.9589 0.225504 14.486 0.237375 14.009 0.281103C14.1243 1.7575 14.2098 3.23389 14.3627 4.70623C14.4382 5.46134 14.5277 6.21238 14.623 6.96553C14.6866 7.45826 14.7521 7.95115 14.8236 8.44388C14.8296 8.48761 14.8475 8.60888 14.8633 8.73991C14.903 8.16574 15.0619 7.23962 15.0798 7.05885C15.1494 6.34552 15.213 5.63009 15.2765 4.91676C15.4178 3.36703 15.5469 1.81911 15.6741 0.269235ZM13.5103 7.53581C13.4506 7.53581 12.7851 1.50715 12.6797 0.493736C11.9623 0.658731 11.2589 0.905023 10.6072 1.22885C11.1894 2.33559 11.7359 3.46035 12.2564 4.6009C12.3577 4.82164 13.4187 7.53581 13.5103 7.53581Z" fill="#333333"/>
<path d="M30.0066 1.57867C28.9693 1.99597 27.9261 2.43911 27.032 3.12059C25.8895 3.98899 25.5338 5.22481 24.2839 5.95211C24.1249 6.04543 23.9978 6.15272 24.1249 6.42306C24.8919 8.18556 25.3966 10.111 25.4721 12.0264C25.5615 14.2261 24.4825 16.0263 22.6882 17.2424C20.8938 18.4605 18.6347 18.7704 16.5165 18.8599C14.3963 18.9513 12.2165 18.8977 10.1659 18.3036C8.22852 17.7433 6.36668 16.6424 5.25198 14.9217C3.9783 12.9526 4.07958 10.88 4.95595 8.7916C5.34545 7.86369 6.03894 6.38338 6.35481 5.8627C4.55263 5.5249 3.57693 4.23934 2.51979 2.85236C1.95748 2.11514 1.36527 1.50114 0.536682 1.13959C3.34236 -0.140105 6.62695 0.0705715 8.92591 2.30793C9.20016 1.99206 9.87577 1.61053 10.3943 1.33434C11.5368 3.48033 12.5621 5.67396 13.4564 7.93521C13.4941 8.03063 13.661 8.03064 13.6511 7.90937C13.4544 5.42947 13.2478 2.91592 12.8086 0.463977C13.1582 0.388392 13.51 0.332793 13.8617 0.295075C13.969 3.41076 14.3584 6.53441 14.8234 9.61432C14.8393 9.72162 14.9863 9.68195 14.9962 9.59043C15.3379 6.49263 15.6599 3.39092 15.9161 0.285156C16.3294 0.311003 16.699 0.338802 17.0328 0.372613C16.8242 1.53104 16.6691 2.70134 16.5123 3.86773C16.3414 5.14336 16.0493 6.48271 16.2122 7.76827C16.224 7.86369 16.3692 7.94107 16.4209 7.82582C17.4363 5.54668 18.5729 3.33713 19.8108 1.17129C19.8188 1.15942 19.8207 1.1474 19.8227 1.13553C19.9379 1.19519 20.0532 1.2568 20.1743 1.32622C20.5617 1.55073 20.9195 1.817 21.2493 2.11108C21.3885 2.25218 21.5434 2.11108 21.5434 2.10912C23.9323 -0.422161 27.183 0.0229367 30.0066 1.57867Z" fill="#F0C95D"/>
<path d="M19.6163 1.03036C19.6124 1.03832 19.6064 1.04223 19.6004 1.05019C18.4241 3.08694 17.365 5.18726 16.3994 7.33115C16.3438 6.24425 16.5644 5.13346 16.6995 4.06249C16.8544 2.83644 17.0452 1.61641 17.1982 0.388409C18.1638 0.495851 18.8554 0.662801 19.6163 1.03036Z" fill="#E17E45"/>
<path d="M15.4159 0.253464C15.5053 0.259475 15.5888 0.26338 15.6742 0.269391C15.5471 1.81927 15.4178 3.36719 15.2767 4.91707C15.2132 5.6304 15.1496 6.34583 15.08 7.05916C15.0622 7.23993 14.9032 8.16589 14.8635 8.74022C14.8476 8.60904 14.8297 8.48792 14.8238 8.44419C14.7523 7.95146 14.6868 7.45858 14.6232 6.96584C14.5278 6.21269 14.4384 5.46165 14.363 4.70654C14.21 3.23421 14.1245 1.75781 14.0092 0.281415C14.4859 0.237537 14.9588 0.225665 15.4159 0.253464Z" fill="#E17E45"/>
<path d="M12.6797 0.493877C12.785 1.50729 13.4507 7.53595 13.5102 7.53595C13.4189 7.53595 12.3578 4.82163 12.2564 4.60119C11.7358 3.46064 11.1893 2.33603 10.6072 1.22915C11.259 0.905165 11.9625 0.658723 12.6797 0.493877Z" fill="#E17E45"/>
<path opacity="0.4" d="M16.4419 0.843117C16.611 0.849729 16.7799 0.860846 16.9488 0.872567C16.9767 0.705919 17.0033 0.538971 17.0334 0.372773C16.6995 0.338963 16.33 0.311163 15.9167 0.285316C15.9017 0.467593 15.8844 0.649568 15.8688 0.831845C16.0601 0.832446 16.2514 0.835603 16.4419 0.843117Z" fill="#F0C95D"/>
<path opacity="0.4" d="M13.8921 0.959131C13.8818 0.737784 13.8696 0.516436 13.8619 0.29509C13.5103 0.332807 13.1585 0.388406 12.8088 0.463991C12.8493 0.689846 12.8858 0.916753 12.9224 1.14351C13.2428 1.06913 13.5659 1.00526 13.8921 0.959131Z" fill="#F0C95D"/>
<path opacity="0.4" d="M2.31395 0.733869C3.5436 0.422361 4.87379 0.721999 6.025 1.18543C7.13293 1.63143 8.20976 2.26647 9.07141 3.10242C9.56805 2.64635 10.1221 2.26151 10.7161 1.94774C10.6097 1.74293 10.5032 1.53811 10.3945 1.33419C9.87595 1.61039 9.20034 1.99192 8.9261 2.30779C6.62713 0.0704304 3.34254 -0.140246 0.536865 1.13945C0.707872 1.21398 0.866556 1.30189 1.01923 1.39686C1.39235 1.08144 1.83414 0.855287 2.31395 0.733869Z" fill="#F0C95D"/>
<path opacity="0.4" d="M28.0682 1.04145C27.5013 1.37956 27.0022 1.80032 26.5492 2.27832C26.1556 2.69352 25.7663 3.11412 25.3503 3.50723C24.9921 3.84578 24.6099 4.15909 24.1964 4.42792C23.7298 4.73102 23.2285 4.97355 22.7157 5.18723C22.7383 5.29678 22.7612 5.40618 22.784 5.51557C23.0248 6.66603 23.2692 7.8171 23.4296 8.98213C23.5889 10.1391 23.6723 11.3151 23.5563 12.4803C23.4442 13.6062 23.1396 14.7139 22.5675 15.6959C21.9095 16.8253 20.9404 17.7092 19.8245 18.3747C19.7523 18.4178 19.6784 18.458 19.6055 18.4997C20.7017 18.2607 21.7578 17.8745 22.6885 17.2427C24.4828 16.0266 25.5618 14.2264 25.4723 12.0267C25.3968 10.1113 24.8922 8.18586 24.1252 6.42335C23.9981 6.15316 24.1252 6.04587 24.2842 5.9524C25.534 5.2251 25.8896 3.98914 27.0321 3.12088C27.9262 2.43941 28.9696 1.99627 30.0067 1.57897C29.4898 1.29421 28.9586 1.04717 28.4211 0.848209C28.3012 0.909219 28.1829 0.97308 28.0682 1.04145Z" fill="#F0C95D"/>
<path opacity="0.4" d="M18.982 1.12217C19.1565 1.15283 19.33 1.18814 19.5033 1.22375C19.5364 1.1662 19.5672 1.1076 19.6004 1.05004C19.6064 1.04208 19.6123 1.03817 19.6163 1.03021C18.8553 0.66265 18.1638 0.495701 17.198 0.388409C17.1774 0.554156 17.1548 0.71945 17.1328 0.884896C17.7527 0.934185 18.37 1.01473 18.982 1.12217Z" fill="#E17E45"/>
<path opacity="0.4" d="M15.6271 0.834092C15.6426 0.645804 15.6587 0.457663 15.6742 0.269376C15.5888 0.263365 15.5053 0.25946 15.4159 0.253449C14.9589 0.225649 14.486 0.23752 14.009 0.281249C14.0262 0.500792 14.0419 0.720335 14.058 0.939878C14.5784 0.873609 15.1031 0.840102 15.6271 0.834092Z" fill="#E17E45"/>
<path opacity="0.4" d="M11.4006 1.62435C11.84 1.44117 12.293 1.29767 12.7536 1.18271C12.7203 0.876461 12.6944 0.635131 12.6797 0.493877C11.9625 0.658873 11.259 0.905164 10.6072 1.22899C10.7143 1.43276 10.8191 1.63772 10.9238 1.84269C11.0805 1.7656 11.2391 1.69167 11.4006 1.62435Z" fill="#E17E45"/>
<path d="M8.16801 2.8238C8.19776 2.86151 7.82224 3.22126 7.68114 3.37814C7.41095 3.67823 6.96976 4.31402 6.9062 4.638C6.63797 4.74138 6.31203 4.57248 6.06168 4.473C5.42184 4.21859 4.84165 3.81933 4.37266 3.31262C3.80434 2.69471 3.51026 1.76274 2.63404 1.50248C2.53667 1.47468 2.54463 1.34349 2.63404 1.31178C3.76076 0.92439 4.86749 0.940168 5.98219 1.36152C6.03193 1.38136 6.0716 1.4589 6.01795 1.50067C6.00804 1.50864 5.33047 1.91001 5.1497 2.02331C6.23464 1.71526 7.18434 1.98349 7.67918 2.20213C7.31162 2.36502 7.05526 2.58171 7.00357 2.61342C7.26384 2.63535 7.548 2.67307 7.77054 2.7147C7.99309 2.75422 8.15403 2.79795 8.16801 2.8238ZM7.20628 3.6067C7.39307 3.32449 7.62358 3.09007 7.87784 2.86948C7.55791 2.82379 7.08502 2.72837 6.76509 2.79194C6.73925 2.55346 7.03738 2.2714 7.43079 2.24556C6.79289 1.91181 5.49938 2.06478 5.14369 2.16411C5.03835 2.19386 5.00063 2.05877 5.07607 2.00122C5.17735 1.92368 5.70795 1.6296 5.84109 1.45078C4.96081 1.03348 3.78841 1.05543 2.8088 1.38316C2.8088 1.38316 3.42476 1.53809 3.80238 2.18996C4.2852 3.02245 5.6543 4.28832 6.69552 4.4751C6.83271 4.27044 6.91221 4.04984 7.20628 3.6067Z" fill="#333333"/>
<path d="M7.87778 2.86947C7.62338 3.09007 7.39286 3.32449 7.20623 3.60669C6.91215 4.04984 6.83266 4.27043 6.69561 4.4751C5.6544 4.28831 4.28529 3.0226 3.80248 2.18995C3.425 1.53824 2.8089 1.38316 2.8089 1.38316C3.7885 1.05527 4.96091 1.03348 5.84118 1.45078C5.70804 1.6296 5.17744 1.92368 5.07616 2.00122C5.00058 2.05877 5.03844 2.19401 5.14378 2.16411C5.49947 2.06478 6.79299 1.91181 7.43088 2.24555C7.03748 2.2714 6.73934 2.55361 6.76519 2.79193C7.08496 2.72837 7.55786 2.82379 7.87778 2.86947Z" fill="#DD87A8"/>
<path opacity="0.4" d="M6.76513 2.79193C6.73928 2.55345 7.03742 2.27139 7.43082 2.24554C6.79293 1.9118 5.49941 2.06477 5.14372 2.1641C5.03838 2.19385 5.00067 2.05876 5.0761 2.00121C5.17738 1.92367 5.70798 1.62959 5.84112 1.45077C4.96084 1.03347 3.78844 1.05541 2.80884 1.38315C2.80884 1.38315 3.05648 1.44596 3.33388 1.65754C3.7925 1.57084 4.28824 1.65454 4.74821 1.65694C4.83717 1.65739 4.87534 1.76378 4.81854 1.82659C4.7413 1.91165 4.7153 2.02976 4.68194 2.1366C4.66286 2.19791 4.64122 2.25802 4.61628 2.31647C5.09714 2.3291 5.57635 2.38259 6.05766 2.38455C6.13655 2.38485 6.17652 2.4678 6.14346 2.53406C6.07013 2.68058 5.99695 2.82709 5.92377 2.97345C6.27209 2.98968 6.61471 3.04708 6.95717 3.11561C7.03727 3.13168 7.04433 3.22891 7.00105 3.28165C6.78767 3.54192 6.63064 3.85373 6.48698 4.15622C6.45061 4.23286 6.4156 4.31025 6.38194 4.38823C6.48863 4.42565 6.59397 4.45676 6.69555 4.47494C6.8326 4.27027 6.91209 4.04968 7.20617 3.60653C7.39295 3.32433 7.62347 3.08991 7.87772 2.86931C7.55795 2.82378 7.08505 2.72836 6.76513 2.79193Z" fill="#DD87A8"/>
<path opacity="0.4" d="M6.10213 3.90348C5.87372 3.75397 5.67296 3.51849 5.4695 3.33411C5.28632 3.16807 5.11531 2.99225 4.91921 2.84108C4.82274 2.76669 4.70327 2.90765 4.75917 3.00112C4.89907 3.23523 5.09352 3.41496 5.30706 3.5819C5.54493 3.76779 5.79363 3.84457 6.05645 3.98207C6.10829 4.00912 6.15097 3.93564 6.10213 3.90348Z" fill="white"/>
<path d="M24.43 2.12836C24.3604 2.06675 23.8179 1.69919 23.816 1.69919C23.7563 1.65351 23.7563 1.55418 23.8377 1.53224C24.3643 1.38723 24.879 1.29782 25.4274 1.30368C25.6103 1.30564 25.9719 1.29767 26.4368 1.43081C26.2937 1.33343 25.9023 1.10893 25.7493 1.02749C25.664 0.977748 25.7097 0.862491 25.797 0.852573C26.8322 0.757152 27.774 0.916138 28.7299 1.32352C28.8193 1.36124 28.7896 1.50429 28.7041 1.52428C27.4244 1.82226 26.6594 2.11844 25.5029 3.55306C24.9981 4.17894 24.8014 4.57039 24.1855 5.34533C24.12 5.42873 23.9907 5.34127 23.959 5.25396C23.5934 4.23258 22.9615 3.39017 22.1707 2.65685C22.1071 2.59915 22.0256 2.47608 22.2243 2.40846C22.737 2.23355 23.2437 2.09846 23.7862 2.09245C23.8239 2.0926 24.3565 2.0965 24.43 2.12836ZM27.1919 1.81039C27.3589 1.74487 28.4835 1.39309 28.4854 1.37326C27.7284 0.987815 26.101 0.94003 25.9719 0.963923C26.2084 1.12681 26.6415 1.4547 26.7369 1.51631C26.7687 1.57988 26.6972 1.65937 26.6257 1.64344C26.0535 1.51631 25.4832 1.45065 24.8989 1.5064C23.806 1.60978 24.2313 1.78454 24.7718 2.19583C24.8494 2.25338 24.8056 2.3727 24.7042 2.35482C23.8855 2.19779 23.1403 2.2615 22.3535 2.49787C22.7191 2.83568 23.053 3.19137 23.3471 3.59078C23.5875 3.91461 23.9214 4.5187 24.2731 4.9976C24.9386 3.82535 26.2461 2.1781 27.1919 1.81039Z" fill="#333333"/>
<path d="M26.7289 1.50247C26.7328 1.50638 26.7349 1.51044 26.7369 1.51645C26.6415 1.45484 26.2084 1.12695 25.9719 0.964058C26.1011 0.940165 27.7284 0.98795 28.4854 1.37339C28.4835 1.39323 27.3589 1.74501 27.1919 1.81052C26.2461 2.17808 24.9386 3.82533 24.2729 4.99773C23.9212 4.51883 23.5874 3.91474 23.347 3.59091C23.0529 3.1915 22.7191 2.83581 22.3534 2.49801C23.1402 2.26163 23.8854 2.19792 24.7041 2.35495C24.8053 2.37283 24.8491 2.25367 24.7717 2.19596C24.2312 1.78468 23.806 1.60976 24.8988 1.50653C25.4831 1.45093 26.0533 1.51645 26.6255 1.64358C26.6971 1.6595 26.7688 1.58001 26.7369 1.51645C26.7629 1.53418 26.7647 1.53223 26.7289 1.50247Z" fill="#DD87A8"/>
<path d="M26.7289 1.50246C26.7648 1.53232 26.7629 1.53443 26.7369 1.51648C26.735 1.51045 26.733 1.50638 26.7289 1.50246Z" fill="#333333"/>
<path opacity="0.4" d="M27.862 1.27646C27.4507 1.4105 27.0453 1.56317 26.6645 1.77009C26.2516 1.99459 25.892 2.29288 25.5237 2.58185C24.8886 3.07984 24.2982 3.62967 23.77 4.23916C23.9271 4.48966 24.0978 4.75925 24.273 4.99772C24.9387 3.82532 26.246 2.17807 27.1919 1.81051C27.3589 1.745 28.4835 1.39322 28.4855 1.37338C28.3637 1.31132 28.218 1.25903 28.0611 1.21334C27.9948 1.23408 27.9283 1.25482 27.862 1.27646Z" fill="#DD87A8"/>
<path opacity="0.4" d="M24.0384 2.55496C23.7498 2.47787 23.44 2.51994 23.1669 2.634C23.0757 2.67217 23.072 2.83686 23.1929 2.82604C23.4645 2.80185 23.7329 2.81191 24.0045 2.8053C24.1461 2.802 24.1802 2.59297 24.0384 2.55496Z" fill="white"/>
<path d="M21.4204 9.49518C21.496 9.32628 21.7404 9.45145 21.7046 9.61449C21.3648 11.1883 19.3201 12.7242 17.7026 12.0684C17.6132 12.0307 17.6291 11.9135 17.7265 11.9014C18.6247 11.7842 19.4016 11.8002 20.1746 11.2377C20.7965 10.7848 21.1164 10.1828 21.4204 9.49518Z" fill="#333333"/>
<path d="M20.8741 12.7997C20.9 12.915 20.8939 13.0303 20.8582 13.1475C20.8284 13.2151 20.8006 13.2847 20.7707 13.3541C20.725 13.4316 20.6673 13.4952 20.6038 13.5548C20.5958 13.5648 20.5878 13.5747 20.582 13.5846C20.5223 13.6283 20.4628 13.674 20.4051 13.7197C20.2144 13.8429 20.266 13.7813 20.1905 13.8111C20.113 13.821 20.0355 13.8309 19.96 13.8408C19.8409 13.8449 19.7295 13.821 19.6261 13.7673C19.5526 13.7454 19.4891 13.7098 19.4354 13.656C19.34 13.5944 19.2665 13.5129 19.2129 13.4116C19.2109 13.4116 19.2109 13.4097 19.209 13.4076C19.1812 13.338 19.1514 13.2684 19.1215 13.199C19.0858 13.0818 19.0797 12.9665 19.1056 12.8493C19.1116 12.7341 19.1453 12.6248 19.209 12.5255C19.2527 12.454 19.3044 12.3885 19.362 12.3288C19.3639 12.3247 19.368 12.3208 19.3719 12.3169C19.4315 12.2712 19.491 12.2275 19.5487 12.1818C19.5507 12.1799 19.5547 12.1779 19.5567 12.1758C19.6282 12.1301 19.7097 12.1023 19.7892 12.0765C19.9044 12.0407 20.0197 12.0347 20.1349 12.0606C20.2502 12.0666 20.3594 12.1002 20.4589 12.1639C20.5165 12.2096 20.5761 12.2553 20.6338 12.3011C20.7193 12.3787 20.7788 12.472 20.8146 12.5814C20.8541 12.6487 20.8741 12.7222 20.8741 12.7997Z" fill="#333333"/>
<path d="M12.4213 11.9018C12.5167 11.9136 12.5326 12.0308 12.4431 12.0687C10.8256 12.7245 8.78099 11.1884 8.44123 9.61481C8.40547 9.45192 8.64981 9.32675 8.72539 9.4955C9.02939 10.183 9.34931 10.7851 9.97128 11.2382C10.7462 11.8005 11.5212 11.7846 12.4213 11.9018Z" fill="#333333"/>
<path d="M11.0402 12.8493C11.066 12.9665 11.06 13.0818 11.0242 13.199C10.9945 13.2686 10.9667 13.3382 10.9368 13.4076C10.9348 13.4095 10.9348 13.4116 10.9329 13.4116C10.8792 13.5129 10.8057 13.5944 10.7103 13.656C10.6567 13.7096 10.5931 13.7454 10.5195 13.7673C10.4161 13.821 10.3049 13.8449 10.1857 13.8408C10.1101 13.8309 10.0327 13.821 9.95521 13.8111C9.87978 13.7813 9.93132 13.8429 9.74258 13.7197C9.68292 13.674 9.62327 13.6283 9.56571 13.5846C9.55775 13.5747 9.54978 13.5648 9.54182 13.5548C9.47826 13.4952 9.42055 13.4316 9.37487 13.3541C9.34512 13.2845 9.31732 13.2149 9.28741 13.1475C9.25165 13.0303 9.24564 12.915 9.27149 12.7997C9.27149 12.7222 9.29132 12.6487 9.33114 12.5813C9.36691 12.472 9.42656 12.3785 9.51192 12.301C9.56962 12.2553 9.62913 12.2096 9.68683 12.1638C9.78616 12.1002 9.89555 12.0664 10.0107 12.0604C10.1259 12.0346 10.2412 12.0406 10.3564 12.0763C10.4359 12.1022 10.5174 12.13 10.5889 12.1757C10.5908 12.1776 10.5949 12.1796 10.5969 12.1817C10.6565 12.2274 10.7141 12.2711 10.7737 12.3168C10.7776 12.3207 10.7817 12.3247 10.7856 12.3286C10.8412 12.3883 10.8929 12.4538 10.9366 12.5253C11.0005 12.6248 11.0343 12.7341 11.0402 12.8493Z" fill="#333333"/>
<path d="M16.1046 12.7135C16.1702 12.7354 16.2337 12.8128 16.204 12.8863C16.0112 13.3732 15.7707 13.8321 15.4529 14.2474C15.2999 14.4461 15.1052 14.7263 14.8488 14.8138C14.8885 15.1695 14.8191 15.5928 15.0555 15.8729C15.4051 16.2902 15.6695 15.9067 15.9517 15.8371C16.051 15.8113 16.049 15.9425 15.9756 16.01C15.8027 16.1728 15.6378 16.2504 15.4331 16.2743C15.2622 16.2941 15.0993 16.2167 14.9761 16.1054C14.8449 15.9841 14.7715 15.841 14.7297 15.6881C14.7336 15.8669 14.7515 16.0677 14.6164 16.1987C14.3143 16.4908 13.7719 16.4352 13.4459 16.1907C13.3903 16.149 13.422 16.0636 13.4936 16.0774C13.9447 16.1688 14.4811 16.3357 14.4831 15.6681C14.4831 15.38 14.4691 15.0879 14.4831 14.7977C14.1711 14.6805 13.881 14.3387 13.6982 14.1281C13.4121 13.8002 13.2928 13.5917 13.0485 13.1604C12.953 12.91 13.1736 12.8127 13.2928 12.761C13.2928 12.761 15.1111 12.3578 16.1046 12.7135ZM15.8801 12.9399C15.0177 12.6677 14.1316 12.7015 13.293 13.0651C13.5711 13.5182 13.8572 14.0706 14.3083 14.3289C15.0774 14.768 15.6298 13.5559 15.8801 12.9399Z" fill="#333333"/>
<path d="M13.2929 13.0651C14.1314 12.7015 15.0177 12.6677 15.8801 12.94C15.6297 13.5559 15.0774 14.768 14.3083 14.3289C13.8573 14.0706 13.5711 13.5182 13.2929 13.0651Z" fill="#884941"/>
<path opacity="0.4" d="M13.2929 13.0651C13.3502 13.1585 13.4083 13.2563 13.4675 13.3546C13.6997 13.2402 13.9557 13.1365 14.2123 13.141C14.3807 13.1439 14.5386 13.2104 14.6302 13.3565C14.7185 13.4978 14.7293 13.6794 14.7176 13.8411C14.7035 14.0368 14.6608 14.2303 14.6028 14.42C15.2183 14.4545 15.6628 13.474 15.8799 12.9398C15.0177 12.6677 14.1314 12.7015 13.2929 13.0651Z" fill="#884941"/>
<path opacity="0.4" d="M14.3612 13.8818C14.2814 13.8271 14.2192 13.7577 14.1708 13.6742C14.1278 13.5999 14.0987 13.4752 14.0075 13.4543C13.9777 13.4476 13.9379 13.4524 13.9175 13.4781C13.9152 13.4809 13.913 13.4838 13.9107 13.4865C13.887 13.5162 13.8658 13.5574 13.8815 13.5969C13.9616 13.7978 14.1047 13.9344 14.3049 14.0157C14.3862 14.0489 14.4255 13.9259 14.3612 13.8818Z" fill="white"/>
</svg>
